<?xml version="1.0" encoding="UTF-8"?><svg id="Layer_1" xmlns="http://www.w3.org/2000/svg" width="353" height="47.5" viewBox="0 0 353 47.5"><path d="M94.77,38.45c.44-.66.79-1.48,1.02-2.43.16-.65.24-1.27.24-1.84,0-.65-.11-1.23-.33-1.73-.22-.51-.59-.92-1.09-1.22-.49-.29-1.12-.44-1.88-.44-.68,0-1.33.13-1.93.38-.6.25-1.13.62-1.59,1.1-.46.48-.84,1.05-1.13,1.71-.22.52-.4,1.12-.52,1.8-.1.52-.14.98-.14,1.36,0,1.08.29,1.92.87,2.5.58.58,1.39.88,2.41.88.9,0,1.69-.18,2.37-.53.68-.35,1.26-.87,1.71-1.54ZM90.99,39.35c-.51,0-.89-.14-1.13-.42-.25-.29-.38-.76-.38-1.39,0-.71.14-1.58.41-2.57.27-.98.64-1.74,1.1-2.26.45-.5.95-.75,1.55-.75.49,0,.84.14,1.06.43.23.3.35.77.35,1.4,0,.73-.14,1.59-.41,2.56-.27.96-.63,1.71-1.08,2.24-.44.51-.92.75-1.48.75Z" fill="#cb9700"/><path d="M100.16,32.32l.46-2.14c.15-.64.31-1.16.48-1.53.16-.36.36-.63.58-.8.22-.17.47-.25.78-.25.21,0,.37.05.47.17.08.09.2.28.29.68l.04.16h1.16l.45-1.97-.21-.05c-.46-.1-1.01-.16-1.64-.16-1.12,0-2.05.3-2.78.9-.72.59-1.26,1.48-1.61,2.65-.06.2-.18.71-.3,1.19-.1.42-.23.95-.26,1.03-.05.14-.11.25-.17.32-.06.07-.13.12-.23.16-.07.03-.23.07-.59.11l-.15.02-.21.89h1.14l-1.57,6.84c-.14.6-.29,1.1-.44,1.47-.15.35-.31.63-.47.8-.16.17-.33.3-.51.37-.18.08-.43.11-.73.11-.27,0-.46-.02-.59-.06l-.22-.07-.33,1.25.2.06c.24.07.51.1.8.1.79,0,1.47-.14,2.03-.41.57-.27,1.05-.73,1.45-1.35.38-.61.69-1.43.91-2.46l1.43-6.66h8.73l.3-1.37h-8.72Z" fill="#cb9700"/><path d="M43.13,14.53c-6.51-2.69-22.74-5.52-28.75-6.79C6.68,6.12,1.18.63.69.14c-.01-.01-.02-.02-.03-.03,0,0,0,0,0,0h0c-.07-.06-.16-.1-.26-.1C.17,0-.02.18-.02.41c0,.06.02.12.04.17,1.33,4.95,6.11,12.5,12.9,14.47,7.61,2.21,24.41,4.35,29.96,6.8,5.02,2.21,6.24,3.25,6.24,3.25,2.06-7.83-5.99-10.58-5.99-10.58Z" fill="#cb9700"/><path d="M47.93,27.72c-5.13-4.84-22.98-7.24-31.13-8.51-7.73-1.2-11.48-4.18-12-4.63-.08-.09-.18-.15-.31-.15-.23,0-.41.18-.41.41,0,.07.02.14.06.2,0,0,3.96,9.78,14.73,11.94,8.12,1.63,16.97,3.33,20.86,4.03,7.01,1.28,10.66,4.99,11,9.4.22,2.89-.98,4.66-1.13,4.94-.37.69.27,1.06.73.11,5.29-10.84-2.39-17.74-2.39-17.74Z" fill="#cb9700"/><path d="M76,33.5c-.03-.21-.08-.43-.14-.64-.06-.2-.17-.4-.27-.57-.04-.09-.36-.56-.85-.8-.75-.38-2.54-.8-2.58-.81,0,0-.45-1.35-3.57-2.72-9.89-4.34-18.44-2.2-18.44-2.2,8.31,7.87,2.38,20.13,2.19,20.51-.02.04-.03.09-.03.14,0,.18.15.32.32.32.14,0,.26-.09.3-.21,1.34-2.24,3.47-5.4,5.03-6.82,2.03-1.85,3.67-2.81,6.16-3.64.85-.28,1.8-.43,2.74-.61,2.6-.42,6.04-.44,6.52-.4.05,0,.1.02.15.02.57.03.81.11,1.2.42.29.23.3.55.31.85,0,.22.39.4.51.09.12-.31.41-1.6.43-1.77.04-.35.05-.74,0-1.16ZM70.6,30.73l-1.53.61s-1.48-.78-3.66-.88c0,0,2.4-.55,4-.23,1.46.29,1.19.49,1.19.49Z" fill="#cb9700"/><path d="M57.81,46.33c0,.53-.43.95-.97.95s-.98-.42-.98-.95.43-.95.98-.95.96.42.96.95ZM56.11,46.33c0,.42.32.76.74.76.41,0,.72-.34.72-.75s-.31-.76-.73-.76-.73.34-.73.76ZM56.69,46.82h-.22v-.95c.09-.01.21-.03.36-.03.18,0,.26.03.32.08.06.04.1.11.1.2,0,.12-.09.19-.2.23h0c.09.04.14.12.17.24.03.14.05.2.07.23h-.23s-.05-.12-.08-.23c-.02-.1-.07-.14-.2-.14h-.1v.38ZM56.7,46.29h.1c.12,0,.22-.04.22-.14,0-.09-.06-.14-.2-.14-.06,0-.1,0-.12.01v.27Z" fill="#cb9700"/><path d="M89.16,8.53h10.63v2.28h-8.12v3.9h7.2v2.28h-7.2v5.81h-2.51v-14.28Z" fill="#052340"/><path d="M102.53,8.53h10.58v2.24h-8.08v3.71h7.16v2.24h-7.16v3.83h8.18v2.24h-10.69v-14.28Z" fill="#052340"/><path d="M116.2,8.53h5.32c4.49,0,7.59,3.08,7.59,7.1v.04c0,4.02-3.1,7.14-7.59,7.14h-5.32v-14.28ZM118.71,10.81v9.71h2.81c3,0,4.96-2.02,4.96-4.81v-.04c0-2.79-1.96-4.85-4.96-4.85h-2.81Z" fill="#052340"/><path d="M132.15,8.53h10.58v2.24h-8.08v3.71h7.16v2.24h-7.16v3.83h8.18v2.24h-10.69v-14.28Z" fill="#052340"/><path d="M145.81,8.53h6.36c1.79,0,3.2.53,4.12,1.43.75.78,1.18,1.84,1.18,3.08v.04c0,2.35-1.41,3.75-3.39,4.32l3.85,5.4h-2.98l-3.51-4.98h-3.14v4.98h-2.51v-14.28ZM151.99,15.6c1.79,0,2.94-.94,2.94-2.39v-.04c0-1.53-1.1-2.37-2.96-2.37h-3.65v4.79h3.67Z" fill="#052340"/><path d="M165.61,8.42h2.33l6.28,14.38h-2.65l-1.45-3.45h-6.75l-1.47,3.45h-2.57l6.28-14.38ZM169.2,17.13l-2.47-5.71-2.45,5.71h4.91Z" fill="#052340"/><path d="M176.66,8.53h2.51v11.99h7.51v2.28h-10.01v-14.28Z" fill="#052340"/><path d="M195.4,8.53h6.36c1.79,0,3.2.53,4.12,1.43.75.78,1.18,1.84,1.18,3.08v.04c0,2.35-1.41,3.75-3.39,4.32l3.85,5.4h-2.98l-3.51-4.98h-3.14v4.98h-2.51v-14.28ZM201.58,15.6c1.79,0,2.94-.94,2.94-2.39v-.04c0-1.53-1.1-2.37-2.96-2.37h-3.65v4.79h3.67Z" fill="#052340"/><path d="M210.15,8.53h10.59v2.24h-8.08v3.71h7.16v2.24h-7.16v3.83h8.18v2.24h-10.69v-14.28Z" fill="#052340"/><path d="M222.85,20.72l1.51-1.79c1.37,1.18,2.75,1.86,4.51,1.86,1.55,0,2.53-.73,2.53-1.79v-.04c0-1.02-.57-1.57-3.22-2.18-3.04-.73-4.75-1.63-4.75-4.26v-.04c0-2.45,2.04-4.14,4.87-4.14,2.08,0,3.73.63,5.18,1.79l-1.35,1.9c-1.29-.96-2.57-1.47-3.88-1.47-1.47,0-2.33.75-2.33,1.69v.04c0,1.1.65,1.59,3.41,2.24,3.02.73,4.57,1.81,4.57,4.18v.04c0,2.67-2.1,4.26-5.1,4.26-2.18,0-4.24-.75-5.96-2.28Z" fill="#052340"/><path d="M236.05,8.53h10.58v2.24h-8.08v3.71h7.16v2.24h-7.16v3.83h8.18v2.24h-10.69v-14.28Z" fill="#052340"/><path d="M249.3,8.53h6.36c1.79,0,3.2.53,4.12,1.43.76.78,1.18,1.84,1.18,3.08v.04c0,2.35-1.41,3.75-3.39,4.32l3.85,5.4h-2.98l-3.51-4.98h-3.14v4.98h-2.51v-14.28ZM255.48,15.6c1.79,0,2.94-.94,2.94-2.39v-.04c0-1.53-1.1-2.37-2.96-2.37h-3.65v4.79h3.67Z" fill="#052340"/><path d="M261.6,8.53h2.77l4.3,10.97,4.28-10.97h2.71l-5.91,14.38h-2.22l-5.94-14.38Z" fill="#052340"/><path d="M277.71,8.53h10.58v2.24h-8.08v3.71h7.16v2.24h-7.16v3.83h8.18v2.24h-10.69v-14.28Z" fill="#052340"/><path d="M297.49,8.53h6.4c1.63,0,2.92.45,3.73,1.26.63.63.96,1.41.96,2.37v.04c0,1.71-.98,2.63-2.04,3.18,1.67.57,2.83,1.53,2.83,3.47v.04c0,2.55-2.1,3.92-5.28,3.92h-6.61v-14.28ZM306.07,12.56c0-1.12-.9-1.82-2.51-1.82h-3.61v3.79h3.43c1.61,0,2.69-.63,2.69-1.94v-.04ZM303.93,16.66h-3.98v3.92h4.16c1.71,0,2.75-.67,2.75-1.96v-.04c0-1.2-.96-1.92-2.94-1.92Z" fill="#052340"/><path d="M316.05,8.42h2.33l6.28,14.38h-2.65l-1.45-3.45h-6.75l-1.47,3.45h-2.57l6.28-14.38ZM319.64,17.13l-2.47-5.71-2.45,5.71h4.91Z" fill="#052340"/><path d="M325.87,8.53h2.33l7.65,9.87v-9.87h2.47v14.28h-2.1l-7.87-10.16v10.16h-2.47v-14.28Z" fill="#052340"/><path d="M340.35,8.53h2.51v7.18l6.79-7.18h3.1l-5.96,6.14,6.22,8.14h-3.06l-4.87-6.42-2.22,2.28v4.14h-2.51v-14.28Z" fill="#052340"/><path d="M112.24,38.86l1.51-1.79c1.37,1.18,2.75,1.86,4.51,1.86,1.55,0,2.53-.73,2.53-1.79v-.04c0-1.02-.57-1.57-3.22-2.18-3.04-.73-4.75-1.63-4.75-4.26v-.04c0-2.45,2.04-4.14,4.87-4.14,2.08,0,3.73.63,5.18,1.79l-1.35,1.9c-1.28-.96-2.57-1.47-3.88-1.47-1.47,0-2.33.75-2.33,1.69v.04c0,1.1.65,1.59,3.41,2.24,3.02.73,4.57,1.81,4.57,4.18v.04c0,2.67-2.1,4.26-5.1,4.26-2.18,0-4.24-.75-5.95-2.28Z" fill="#052340"/><path d="M129.04,28.99h-4.53v-2.32h11.58v2.32h-4.53v11.95h-2.53v-11.95Z" fill="#052340"/><path d="M146.68,26.67h2.51v11.99h7.51v2.28h-10.01v-14.28Z" fill="#052340"/><path d="M157.86,33.85v-.04c0-4.02,3.1-7.38,7.49-7.38s7.44,3.32,7.44,7.34v.04c0,4.02-3.1,7.38-7.49,7.38s-7.44-3.32-7.44-7.34ZM170.16,33.85v-.04c0-2.77-2.02-5.08-4.85-5.08s-4.81,2.26-4.81,5.04v.04c0,2.77,2.02,5.06,4.85,5.06s4.81-2.24,4.81-5.02Z" fill="#052340"/><path d="M175.19,34.89v-8.22h2.51v8.12c0,2.65,1.37,4.06,3.61,4.06s3.59-1.33,3.59-3.96v-8.22h2.51v8.1c0,4.26-2.41,6.4-6.14,6.4s-6.08-2.14-6.08-6.28Z" fill="#052340"/><path d="M190.59,26.67h2.51v14.28h-2.51v-14.28Z" fill="#052340"/><path d="M195.54,38.86l1.51-1.79c1.37,1.18,2.75,1.86,4.51,1.86,1.55,0,2.53-.73,2.53-1.79v-.04c0-1.02-.57-1.57-3.22-2.18-3.04-.73-4.75-1.63-4.75-4.26v-.04c0-2.45,2.04-4.14,4.87-4.14,2.08,0,3.73.63,5.18,1.79l-1.35,1.9c-1.28-.96-2.57-1.47-3.88-1.47-1.47,0-2.33.75-2.33,1.69v.04c0,1.1.65,1.59,3.41,2.24,3.02.73,4.57,1.81,4.57,4.18v.04c0,2.67-2.1,4.26-5.1,4.26-2.18,0-4.24-.75-5.95-2.28Z" fill="#052340"/><circle cx="137.21" cy="39.54" r="1.41" fill="#052340"/></svg>